<svg xmlns="http://www.w3.org/2000/svg" width="250" height="250" viewBox="0 0 250 250">
  <path fill="#000000" d="M167.134916,125.506928 C152.975675,125.506928 141.545927,114.118191 141.545927,100.009755 C141.545927,85.9013188 152.975675,74.5125814 167.134916,74.5125814 C181.294156,74.5125814 192.638608,85.9013188 192.638608,100.009755 C192.638608,114.118191 181.294156,125.506928 167.134916,125.506928 Z M92.6329215,119.507593 C76.109868,119.507593 62.7719814,106.217564 62.7719814,89.7537966 C62.7719814,73.2900291 76.109868,60 92.6329215,60 C109.155975,60 122.394325,73.2900291 122.394325,89.7537966 C122.394325,106.217564 109.155975,119.507593 92.6329215,119.507593 Z M25,187.931648 C29.4921846,163.086746 32.4242562,141.815667 53.3485855,133.929822 C74.2729148,126.043978 119.280998,138.573839 161.039499,138.18521 C202.798001,137.796581 212.350753,126.760695 213.346403,141.737551 C214.342053,156.714406 204.726582,163.303519 182.883041,165.162688 C168.32068,166.402134 150.28465,167.021857 128.774952,167.021857 L126.370104,187.931648 C82.9438452,187.931648 57.3538044,187.931648 49.5999818,187.931648 C48.2383567,187.931648 52.0907842,173.469873 51.1118029,173.469873 C48.198256,173.469873 44.0188319,187.931648 42.2076872,187.931648 C32.9276692,187.931648 25.0546718,188 25,187.931648 Z M138.153269,188 C138.153269,181.595762 138.153269,178.188588 138.153269,177.778477 C189.375672,177.221247 216.040668,171.025319 218.148258,159.190694 L225,188 L138.153269,188 Z"/>
</svg>
