<svg xmlns="http://www.w3.org/2000/svg" width="250" height="250" viewBox="0 0 250 250">
  <g fill="none" fill-rule="evenodd">
    <path fill="#000000" fill-rule="nonzero" d="M115.740741,92.5245098 L94.7712418,92.5245098 L94.7712418,19.6078431 L73.8017429,19.6078431 L73.8017429,92.5245098 L52.832244,92.5245098 L52.832244,19.6078431 L31.8627451,19.6078431 L31.8627451,92.5245098 C31.8627451,114.607843 49.2674292,132.52451 71.1805556,133.878676 L71.1805556,227.941176 L97.3924292,227.941176 L97.3924292,133.878676 C119.305556,132.52451 136.71024,114.607843 136.71024,92.5245098 L136.71024,19.6078431 L115.740741,19.6078431 L115.740741,92.5245098 Z M168.164488,61.2745098 L168.164488,144.607843 L194.376362,144.607843 L194.376362,227.941176 L220.588235,227.941176 L220.588235,19.6078431 C191.650327,19.6078431 168.164488,42.9411765 168.164488,61.2745098 Z"/>
    <polygon points="0 0 250 0 250 250 0 250"/>
  </g>
</svg>
