<svg xmlns="http://www.w3.org/2000/svg" width="250" height="250" viewBox="0 0 250 250">
  <g fill="none" fill-rule="evenodd">
    <polygon points="0 0 250 0 250 250 0 250"/>
    <path fill="#000000" fill-rule="nonzero" d="M82.1122995,180.456471 C96.9368984,180.456471 108.903743,168.549388 108.903743,153.798824 C108.903743,139.048259 96.9368984,127.141176 82.1122995,127.141176 C67.2877005,127.141176 55.3208556,139.048259 55.3208556,153.798824 C55.3208556,168.549388 67.2877005,180.456471 82.1122995,180.456471 Z M75.2673797,44.7058824 L35.6951872,44.7058824 L35.6951872,216 L25,216 L25,34 L30.3475936,34 L88.6363636,34 L128.743316,34 L128.743316,44.7058824 C127.0332,58.9803922 121.467432,66.1176471 112.046012,66.1176471 C111.965705,66.1176471 99.7061609,66.1176471 75.2673797,66.1176471 L75.2673797,44.7058824 Z M189.278075,127.141176 C209.014439,127.141176 225,143.046906 225,162.684706 L225,216 L46.3903743,216 L46.3903743,189.342353 L117.834225,189.342353 L117.834225,127.141176 L189.278075,127.141176 Z M70.5815409,69.3323243 L79.5512796,75.1573407 L67.8895967,93.1147576 L58.919858,87.2897411 L70.5815409,69.3323243 Z M93.4491979,76.8235294 L104.144385,76.8235294 L104.144385,98.2352941 L93.4491979,98.2352941 L93.4491979,76.8235294 Z M118.042303,75.1573407 L127.012042,69.3323243 L138.673725,87.2897411 L129.703986,93.1147576 L118.042303,75.1573407 Z"/>
  </g>
</svg>
