<svg xmlns="http://www.w3.org/2000/svg" width="250" height="250" viewBox="0 0 250 250">
  <g fill="none" fill-rule="evenodd">
    <polygon points="0 0 250 0 250 250 0 250"/>
    <path fill="#000000" fill-rule="nonzero" d="M197.916667,31.25 L52.0833333,31.25 C40.625,31.25 31.3541667,40.625 31.3541667,52.0833333 L31.25,197.916667 C31.25,209.375 40.625,218.75 52.0833333,218.75 L197.916667,218.75 C209.375,218.75 218.75,209.375 218.75,197.916667 L218.75,52.0833333 C218.75,40.625 209.375,31.25 197.916667,31.25 Z M187.5,145.833333 L145.833333,145.833333 L145.833333,187.5 L104.166667,187.5 L104.166667,145.833333 L62.5,145.833333 L62.5,104.166667 L104.166667,104.166667 L104.166667,62.5 L145.833333,62.5 L145.833333,104.166667 L187.5,104.166667 L187.5,145.833333 Z"/>
  </g>
</svg>
