<svg xmlns="http://www.w3.org/2000/svg" width="250" height="250" viewBox="0 0 250 250">
  <g fill="none" fill-rule="evenodd">
    <polygon points="0 0 250 0 250 250 0 250"/>
    <path fill="#000000" d="M158.572114,143.429978 L166.350288,135.651804 L224.333044,193.63456 L199.584307,218.383297 L141.601551,160.400541 L148.672619,153.329473 L114.731493,119.388348 L124.630988,109.488853 L158.572114,143.429978 Z M58.1629509,99.5893578 L104.831998,52.9203102 L143.015765,91.1040764 L96.3467171,137.773124 L58.1629509,99.5893578 Z M36.2426407,113.024387 L50.3847763,98.882251 L97.0538239,145.551299 L82.9116882,159.693434 L36.2426407,113.024387 Z M104.124892,45.1421356 L118.267027,31 L164.936075,77.6690476 L150.793939,91.8111832 L104.124892,45.1421356 Z M26,202.757359 L96,202.757359 L96,217.757359 L26,217.757359 L26,202.757359 Z"/>
  </g>
</svg>
