<svg xmlns="http://www.w3.org/2000/svg" width="250" height="250" viewBox="0 0 250 250">
  <g fill="none" fill-rule="evenodd">
    <path fill="#000000" fill-rule="nonzero" d="M123.381407,114.488636 C99.7313508,108.342803 92.125826,101.988636 92.125826,92.092803 C92.125826,80.7386364 102.648538,72.8219697 120.255849,72.8219697 C138.800828,72.8219697 145.677055,81.6761364 146.302167,94.6969697 L169.327112,94.6969697 C168.597815,76.780303 157.658362,60.3219697 135.88364,55.0094697 L135.88364,32.1969697 L104.628059,32.1969697 L104.628059,54.6969697 C84.416116,59.0719697 68.1632137,72.1969697 68.1632137,92.3011364 C68.1632137,116.363636 88.0626005,128.342803 117.130291,135.32197 C143.176609,141.57197 148.385872,150.738636 148.385872,160.426136 C148.385872,167.613636 143.280794,179.07197 120.255849,179.07197 C98.7936834,179.07197 90.3546764,169.488636 89.2086384,157.19697 L66.2878788,157.19697 C67.538102,180.00947 84.6244865,192.82197 104.628059,197.092803 L104.628059,219.69697 L135.88364,219.69697 L135.88364,197.301136 C156.199768,193.44697 172.348485,181.676136 172.348485,160.32197 C172.348485,130.738636 147.031464,120.63447 123.381407,114.488636 Z"/>
    <polygon points="0 0 250 0 250 250 0 250"/>
  </g>
</svg>
