<svg xmlns="http://www.w3.org/2000/svg" width="250" height="250" viewBox="0 0 250 250">
  <g fill="none" fill-rule="evenodd">
    <path d="M0,0 L250,0 L250,250 L0,250 L0,0 Z M104.114583,52.0833333 L145.78125,52.0833333 L145.78125,72.9166667 L104.114583,72.9166667 L104.114583,52.0833333 Z M104.114583,52.0833333 L145.78125,52.0833333 L145.78125,72.9166667 L104.114583,72.9166667 L104.114583,52.0833333 Z"/>
    <path fill="#000000" fill-rule="nonzero" d="M104.166667,166.666667 L104.166667,156.25 L31.3541667,156.25 L31.25,197.916667 C31.25,209.479167 40.5208333,218.75 52.0833333,218.75 L197.916667,218.75 C209.479167,218.75 218.75,209.479167 218.75,197.916667 L218.75,156.25 L145.833333,156.25 L145.833333,166.666667 L104.166667,166.666667 Z M208.333333,72.9166667 L166.5625,72.9166667 L166.5625,52.0833333 L145.729167,31.25 L104.0625,31.25 L83.3333333,52.0833333 L83.3333333,72.9166667 L41.71875,72.9166667 C30.2083333,72.9166667 20.8854167,82.2395833 20.8854167,93.75 L20.8854167,125 C20.8854167,136.510417 30.2083333,145.833333 41.71875,145.833333 L104.21875,145.833333 L104.21875,125 L145.885417,125 L145.885417,145.833333 L208.385417,145.833333 C219.895833,145.833333 229.21875,136.510417 229.21875,125 L229.21875,93.75 C229.166667,82.2395833 219.84375,72.9166667 208.333333,72.9166667 Z M145.78125,72.9166667 L104.114583,72.9166667 L104.114583,52.0833333 L145.78125,52.0833333 L145.78125,72.9166667 Z"/>
  </g>
</svg>
