<svg xmlns="http://www.w3.org/2000/svg" width="250" height="250" viewBox="0 0 250 250">
  <g fill="none" fill-rule="evenodd">
    <polygon points="0 0 250 0 250 250 0 250"/>
    <circle cx="151.042" cy="109.375" r="13.021" fill="#000000" fill-rule="nonzero"/>
    <circle cx="98.958" cy="109.375" r="13.021" fill="#000000" fill-rule="nonzero"/>
    <path fill="#000000" fill-rule="nonzero" d="M239.010417,131.927083 C239.375,129.6875 239.583333,127.34375 239.583333,125 C239.583333,122.65625 239.375,120.3125 239.010417,118.072917 C236.354167,102.34375 224.84375,89.5833333 209.791667,85.0520833 C204.322917,73.4375 196.458333,63.125 186.927083,54.7395833 C170.416667,40.15625 148.75,31.25 125,31.25 C101.25,31.25 79.5833333,40.15625 63.0729167,54.7395833 C53.5416667,63.1770833 45.7291667,73.4375 40.2083333,85.0520833 C25.15625,89.53125 13.6458333,102.291667 10.9895833,118.072917 C10.625,120.3125 10.4166667,122.65625 10.4166667,125 C10.4166667,127.34375 10.625,129.6875 10.9895833,131.927083 C13.6458333,147.65625 25.15625,160.416667 40.2083333,164.947917 C45.625,176.458333 53.3854167,186.666667 62.8125,195.052083 C79.375,209.739583 101.09375,218.75 125,218.75 C148.90625,218.75 170.625,209.739583 187.1875,195.052083 C196.614583,186.666667 204.375,176.458333 209.791667,164.947917 C224.84375,160.416667 236.354167,147.65625 239.010417,131.927083 Z M197.916667,145.833333 C196.875,145.833333 195.885417,145.677083 194.947917,145.520833 C192.916667,152.447917 189.84375,158.958333 185.989583,164.895833 C172.916667,184.739583 150.46875,197.916667 125,197.916667 C99.53125,197.916667 77.0833333,184.739583 64.0625,164.895833 C60.15625,158.958333 57.1354167,152.447917 55.1041667,145.520833 C54.1145833,145.677083 53.125,145.833333 52.0833333,145.833333 C40.625,145.833333 31.25,136.458333 31.25,125 C31.25,113.541667 40.625,104.166667 52.0833333,104.166667 C53.125,104.166667 54.1145833,104.322917 55.0520833,104.479167 C57.0833333,97.5520833 60.15625,91.0416667 64.0104167,85.1041667 C77.0833333,65.2604167 99.53125,52.0833333 125,52.0833333 C150.46875,52.0833333 172.916667,65.2604167 185.9375,85.1041667 C189.84375,91.0416667 192.864583,97.5520833 194.895833,104.479167 C195.885417,104.322917 196.875,104.166667 197.916667,104.166667 C209.375,104.166667 218.75,113.541667 218.75,125 C218.75,136.458333 209.375,145.833333 197.916667,145.833333 Z M78.125,145.833333 C86.0416667,164.21875 104.010417,177.083333 125,177.083333 C145.989583,177.083333 163.958333,164.21875 171.875,145.833333 L78.125,145.833333 Z"/>
  </g>
</svg>
